<?xml version="1.0" encoding="utf-8"?>
<!-- Generator: Adobe Illustrator 19.2.1, SVG Export Plug-In . SVG Version: 6.00 Build 0)  -->
<svg version="1.1" id="layer" xmlns="http://www.w3.org/2000/svg" xmlns:xlink="http://www.w3.org/1999/xlink" x="0px" y="0px"
	 viewBox="0 0 652 652" style="enable-background:new 0 0 652 652;" xml:space="preserve">
<style type="text/css">
	.st0{fill:#8B034F;}
	.st1{fill:#F9B000;}
</style>
<g>
	<path class="st0" d="M38.5,365.9l9.9-26.8l9.4,26.8H38.5z M67.4,392.9h9.1L53,328.3h-9l-24.6,64.6h9.1l7.2-19.8h24.6L67.4,392.9z
		 M110.4,379.2c0,5.3-4.3,8.1-11.6,8.1c-5.9,0-9.8-1.7-12-5.5l-8.7,1.5c3.4,6.9,10.4,10.3,20.4,10.3c13.5,0,20.5-7.5,20.5-15.4
		c0-10.2-9.4-13-20.3-15.2c-5.2-1.1-11.4-3-11.4-7.6c0-3.3,3.2-7.1,9.7-7.1c6.6,0,10.5,4.5,11.1,6.3l7.6-3.2
		c-3.5-6.7-10.5-9.4-17.9-9.4c-11.3,0-18.9,5.6-18.9,14.5c0,10.1,8.7,12.1,17.1,13.9C103.4,371.9,110.4,373.7,110.4,379.2
		 M137.1,328.3l-8.5,3.5v11.9h-7.8v6.9h7.8v31.5c-0.1,6.4-0.1,11,9.4,11c3.1,0,6.5-0.6,8-0.8v-6.8c-1.6,0.5-3.8,1.1-5.4,1.1
		c-3.5,0-3.5-2.5-3.5-8.3v-27.8h8.9v-6.9h-8.9V328.3z M153.4,343.8v49.1h8.2v-22.6c0-4.2-0.1-9.2,2.1-12.7c2.7-4.4,6.6-6,14.7-6.1
		V343c-3.3,0.1-12.1,0.3-16.8,9.6v-8.8H153.4z M227.2,328.4v8h36.7l-36.7,48.2v8.4h47.4v-7.7h-37.5l36.5-48.7v-8.1H227.2z
		 M326.2,343.8v49.1h8.2v-27.8c0-3.6,0-7.4,3.6-11c2.6-2.6,5.7-3.7,9.4-3.7c4.5,0,9.1,2.1,10.5,6.7c0.5,1.7,0.5,3.1,0.5,8.1v27.7
		h8.2v-29.1c0-4.2,0-7.1-0.8-10c-2.4-8.1-9.9-11.2-16.1-11.2c-2.9,0-10.7,0.7-15.3,8.7v-7.5H326.2z M454.1,381
		c-1.7,3.4-5,6.4-11.3,6.4c-5.5,0-14.8-3.5-14.8-19.7c0-4.4,0.8-19.8,14.3-19.8c6.8,0,10,3.7,11.4,6.9l7.7-3.2
		c-4.8-7.9-13.3-9.8-19.5-9.8c-15.6,0-23.2,12.6-23.2,26.4c0,12,6.5,25.4,23.9,25.4c10,0,15.6-4.9,18.7-9.7L454.1,381z M286.4,363.3
		h26c-0.7-12.8-8.1-15-13.1-15C292.3,348.2,287.3,353.4,286.4,363.3 M319.2,383.5c-2.8,4.8-8.2,10.3-18.9,10.3
		c-14.5,0-22.8-9.8-22.8-26.4c0-18.4,12.2-25.5,22.5-25.5c9,0,17.6,5,20.5,17.3c0.9,4.1,0.9,7.9,0.9,9.9h-35.2
		c-0.2,8.2,3.2,18.6,14.8,18.4c4.7-0.1,8.1-2.2,10.2-5.6L319.2,383.5z M380,363.3h26c-0.7-12.8-8.1-15-13.1-15
		C385.9,348.2,380.9,353.4,380,363.3 M412.8,383.5c-2.8,4.8-8.2,10.3-18.9,10.3c-14.5,0-22.8-9.8-22.8-26.4
		c0-18.4,12.1-25.5,22.5-25.5c9,0,17.6,5,20.5,17.3c0.9,4.1,0.9,7.9,0.9,9.9h-35.2c-0.2,8.2,3.2,18.6,14.8,18.4
		c4.7-0.1,8.1-2.2,10.2-5.6L412.8,383.5z M506.4,392.9l-8.6,0c0,0-0.7-3.5-1-7.2c-2.5,2.6-7.1,7.9-16.4,7.9
		c-9.5,0-16.6-5.7-16.6-13.9c0-2.6,0.7-5.2,2.2-7.4c2.8-4.2,8-7.5,22.6-8.6l7.8-0.6v-1.2c0-5.1,0-13.6-11-13.6
		c-6.9,0-9.2,3.3-10,6.4l-7.6-3.2c0.1-0.3,0.2-0.5,0.4-0.8c2.9-5.4,8.6-8.7,16.9-8.7c4.5,0,10.4,1.1,14.3,4.2
		c5.5,4.1,5.3,12.3,5.3,12.3l0.3,25.2C505.1,383.5,505.3,390.8,506.4,392.9 M495.1,379.4c1.2-2.7,1.3-3.8,1.3-11
		c-3.2,0.5-7.5,1.1-12.8,2.3c-9.1,2-10.7,5.4-10.7,8.8c0,3.9,3.1,7.3,9.2,7.3C487.9,386.7,492.8,384.4,495.1,379.4 M221.3,392.9
		l-8.6,0c0,0-0.7-3.5-1-7.2c-2.5,2.6-7.1,7.9-16.4,7.9c-9.5,0-16.6-5.7-16.6-13.9c0-2.6,0.7-5.2,2.2-7.4c2.8-4.2,8-7.5,22.6-8.6
		l7.8-0.6v-1.2c0-5.1,0-13.6-10.9-13.6c-6.9,0-9.2,3.3-10,6.4l-7.6-3.2c0.1-0.3,0.3-0.5,0.4-0.8c2.9-5.4,8.6-8.7,16.9-8.7
		c4.5,0,10.4,1.1,14.3,4.2c5.5,4.1,5.3,12.3,5.3,12.3l0.3,25.2C220,383.5,220.3,390.8,221.3,392.9 M210.1,379.4
		c1.2-2.7,1.4-3.8,1.4-11c-3.2,0.5-7.5,1.1-12.8,2.3c-9.1,2-10.7,5.4-10.7,8.8c0,3.9,3.1,7.3,9.2,7.3
		C202.8,386.7,207.7,384.4,210.1,379.4"/>
	<path class="st1" d="M560,351.6c-1.3,0.8-2.6,1.6-3.8,2.5c-14.8-8.2-46.6-24-49.3-25.5c-2.9-1.5-8.1-3.6-7.4-8.5
		c0.9-6.9,12.8-21.9,17.9-28.1c27.4-33.5,39.7-43.9,47.8-42.8c8.7,1.1,13.5,10.1,14.1,52.1c-4.8-1.5-10.2-3-15.9-4.5
		c-0.5-6.1-1.6-15.3-2-18.5c-0.5-3.6-1.2-5-2.6-5.1c-1.6-0.2-5.6,3.6-9.3,7.3c-1.7,1.7-6.3,6.4-11.5,11.6c-4.3-0.3-7.2,0.6-8.8,2.7
		c-1.3,1.7-1.5,4-0.8,6.9c-2.8,2.8-5.2,5.2-6.7,6.7c-5.7,5.7-11.8,10.4-12.1,12.7c-0.2,1.9,2.6,3.8,6.8,6.3
		C526.5,333.5,551.2,346.9,560,351.6 M598.5,309.6c-9.7-3.4-33.6-12.3-58.8-15.6c-8.7-1.1-12.2,1.9-8.6,10.2
		c3.5,8.2,12.6,21.8,22.2,32.1c9.6,10.3,19.9,13,23.2-2.8c0.1-0.6,0.2-1.1,0.3-1.7c0.8-4.1,1.4-8,1.7-11.4c-4.2-1.9-9-4-13.8-6
		c0.3,3.6,0.7,9.9,0.9,14.7c0,0.6,0.1,1.2,0.1,1.8c0.3,7.8-2.4,7.8-6.8,4.6c-5.2-3.7-21-24.6-22.8-33.8c-0.1-0.6,0.2-0.6,0.5-0.5
		c0.1,0,0.2,0.1,0.4,0.2c0,0,0,0,0,0c3.6,1.4,15.5,6.1,27.5,11.2c4.8,2,9.7,4.1,14,6.1c4.3,1.9,8.1,3.7,11,5.3
		c5.2,2.8,7.2,4.7,5.1,6.9c-10.9,11-48.8,26.7-61.9,46.1c0,0-0.1,0.1-0.1,0.2c-0.2,0.2-0.3,0.4-0.4,0.7c0,0.1-0.1,0.2-0.1,0.2
		c-0.6,1.2-1.6,3.3-1.9,5.8c-0.6,4.2,1.6,8.1,7.7,9.8c1.5,0.5,3.3,0.8,5.2,1c0.3,0,0.7,0.1,1.1,0.1c11.7,0.6,42.1-6.1,51.3-10.2
		c9.6-4.2,6.7-8.5,3.9-10.6c-2.1-1.7-12.7-7.6-17.9-10.4c-1.4,0.9-2.5,1.6-3.8,2.5c8.8,5.4,12.2,8,14.3,9.6c0.8,0.6,0.4,1.3-0.8,1.4
		c-0.3,0-0.6,0-0.9,0.1c-8.3,0.6-24.1,1.7-31.5,2.1c-1.1,0.1-2.3,0.1-3,0.1c1.8-1.7,3.9-3.3,4.9-4c15.9-11.1,42.3-26.8,50.1-33.6
		C616.5,336.6,632.1,321.4,598.5,309.6"/>
</g>
</svg>
